<svg width="130" height="155" viewBox="0 0 130 155" fill="none" xmlns="http://www.w3.org/2000/svg">
<path d="M64.7578 105.469C28.9791 105.469 0 119.991 0 137.921V154.147H129.516V137.921C129.516 119.991 100.536 105.469 64.7578 105.469ZM32.3789 56.7911C32.3789 65.3979 35.7902 73.6522 41.8624 79.7382C47.9346 85.8241 56.1703 89.2432 64.7578 89.2432C73.3452 89.2432 81.5809 85.8241 87.6531 79.7382C93.7253 73.6522 97.1366 65.3979 97.1366 56.7911M60.7104 0C58.282 0 56.663 1.70373 56.663 4.05651V28.3956H48.5683V8.11302C48.5683 8.11302 30.3552 15.0902 30.3552 38.5368C30.3552 38.5368 24.2842 39.6726 24.2842 48.6781H105.231C104.827 39.6726 99.1603 38.5368 99.1603 38.5368C99.1603 15.0902 80.9472 8.11302 80.9472 8.11302V28.3956H72.8525V4.05651C72.8525 1.70373 71.3145 0 68.8051 0H60.7104Z" fill="#F8F8F8"/>
</svg>
