<svg width="114" height="114" viewBox="0 0 114 114" fill="none" xmlns="http://www.w3.org/2000/svg">
<path d="M34.2 91.2L57 73.815L79.7999 91.2L71.25 62.985L94.0499 46.74H66.12L57 17.1L47.88 46.74H19.95L42.75 62.985L34.2 91.2ZM57 114C49.115 114 41.705 112.503 34.77 109.508C27.835 106.514 21.8025 102.454 16.6725 97.3275C11.5425 92.2013 7.4822 86.1688 4.4916 79.23C1.50101 72.2912 0.00380721 64.8812 7.21518e-06 57C-0.00379278 49.1188 1.49341 41.7088 4.4916 34.77C7.4898 27.8312 11.5501 21.7987 16.6725 16.6725C21.7949 11.5463 27.8274 7.486 34.77 4.4916C41.7126 1.4972 49.1226 0 57 0C64.8774 0 72.2874 1.4972 79.2299 4.4916C86.1725 7.486 92.205 11.5463 97.3274 16.6725C102.45 21.7987 106.512 27.8312 109.514 34.77C112.516 41.7088 114.011 49.1188 114 57C113.989 64.8812 112.491 72.2912 109.508 79.23C106.525 86.1688 102.465 92.2013 97.3274 97.3275C92.1898 102.454 86.1573 106.516 79.2299 109.514C72.3026 112.512 64.8926 114.008 57 114Z" fill="#F8F8F8"/>
</svg>
