<svg width="177" height="188" viewBox="0 0 177 188" fill="none" xmlns="http://www.w3.org/2000/svg">
<path d="M85.1957 111.46L85.5923 111.535C94.0493 113.362 99.6118 121.159 98.0927 129.159C96.7964 135.985 90.7842 140.755 83.7754 141.192L82.6412 147.165C82.2361 149.298 80.0992 150.661 77.8332 150.23C75.5672 149.8 74.0784 147.749 74.4835 145.616L75.6178 139.643C72.4491 138.168 69.8595 135.759 68.2491 132.786C66.6387 129.814 66.0973 126.445 66.7085 123.199C67.1136 121.066 69.2504 119.703 71.5165 120.134C73.7825 120.564 75.2712 122.615 74.8661 124.748C74.1167 128.694 76.8615 132.475 80.997 133.261C85.1325 134.046 89.1391 131.492 89.8784 127.599C90.6177 123.706 87.8264 119.86 83.6909 119.075L83.2943 119C79.2388 118.122 75.6702 115.791 73.3466 112.502C71.023 109.213 70.1276 105.226 70.8505 101.387C72.1468 94.5607 78.159 89.7904 85.1678 89.3532L86.3021 83.3803C86.7072 81.2471 88.8441 79.8848 91.1101 80.3151C93.3761 80.7455 94.8648 82.7963 94.4597 84.9295L93.3255 90.9024C99.6861 93.8784 103.531 100.521 102.235 107.347C101.83 109.48 99.6928 110.842 97.4268 110.412C95.1608 109.982 93.6721 107.931 94.0772 105.798C94.8165 101.905 92.0251 98.0593 87.8896 97.274C83.7541 96.4886 79.7475 99.043 79.0082 102.936C78.2689 106.829 81.0603 110.674 85.1957 111.46Z" fill="#F8F8F8"/>
<path d="M69.5522 29.7815L82.0335 50.1641L79.988 51.6322C46.2024 52.3218 16.7528 75.0243 10.5529 107.673C5.10238 136.375 25.4236 164.368 55.9128 170.158L90.866 176.796C121.355 182.586 150.523 163.996 155.973 135.294C162.231 102.651 143.154 70.7329 111.973 57.7061C112.319 56.6043 112.319 55.4243 111.972 54.308L128.146 42.3893L129.252 41.2953C130.659 39.4094 131.361 37.125 131.25 34.7935C131.139 32.4619 130.222 30.2123 128.64 28.3906C127.057 26.5689 124.896 25.2761 122.49 24.7109C120.084 24.1457 117.566 24.3394 115.322 25.2624L111.56 19.0225C110.703 17.6905 109.562 16.538 108.213 15.6401C106.864 14.7422 105.336 14.119 103.728 13.8111C102.121 13.5033 100.471 13.5178 98.8848 13.8535C97.299 14.1893 95.8131 14.8388 94.5242 15.7599L88.5234 20.0682C86.7849 18.3611 84.5122 17.2307 82.0571 16.852C79.602 16.4733 77.1011 16.8673 74.9414 17.9731C72.7817 19.0788 71.0834 20.8348 70.1092 22.9693C69.135 25.1039 68.9393 27.498 69.5522 29.7815ZM89.671 41.2546L82.0481 28.9775C84.0879 30.4138 86.559 31.181 89.0748 31.1589C91.5905 31.1367 94.0091 30.3266 95.9522 28.8552L101.535 24.1802L105.501 30.7458C106.743 32.7608 108.632 34.3566 110.887 35.2955C113.141 36.2344 115.64 36.466 118.011 35.956L106.49 44.4486L89.671 41.2546ZM21.883 109.824C27.9472 77.8905 60.3477 57.2347 94.2699 63.6766C128.192 70.1184 150.765 101.214 144.646 133.126L144.644 133.137C142.558 144.096 135.935 153.728 126.231 159.914C116.527 166.101 104.535 168.337 92.8915 166.13L57.9383 159.492C46.2964 157.277 35.959 150.801 29.1981 141.488C22.4373 132.174 19.8061 120.785 21.883 109.824Z" fill="#F8F8F8"/>
</svg>
