<svg width="124" height="124" viewBox="0 0 124 124" fill="none" xmlns="http://www.w3.org/2000/svg">
<path d="M22.165 0.460672C22.9543 0.840109 23.6205 1.43471 24.0866 2.176C24.5528 2.91729 24.8001 3.77513 24.8 4.65076C24.8 9.79539 26.7344 12.7582 29.1586 16.3656L29.3384 16.626C31.3968 19.688 34.1 23.6983 34.1 29.4442C34.1 35.3078 31.1426 40.4772 26.6352 43.5454C27.8215 44.5371 28.8672 45.7624 29.7724 47.221C32.7236 51.9938 34.1 59.2892 34.1 69.7644C34.1 80.376 32.674 93.1198 30.349 103.298C29.1958 108.355 27.7636 113.023 26.0586 116.525C25.2573 118.269 24.1907 119.879 22.8966 121.298C21.6194 122.605 19.654 124 17.05 124C14.446 124 12.4806 122.605 11.2096 121.298C9.9155 119.879 8.84886 118.269 8.0476 116.525C6.3364 113.017 4.9042 108.355 3.751 103.291C1.33042 92.2756 0.0731944 81.0363 5.72161e-07 69.7582C5.72161e-07 59.283 1.3764 51.9938 4.3276 47.221C5.16598 45.8331 6.22569 44.5915 7.4648 43.5454C5.16435 41.982 3.28144 39.8797 1.98029 37.4218C0.679142 34.9639 -0.00071998 32.2251 5.72161e-07 29.4442C5.72161e-07 27.1632 0 23.2396 2.3746 18.1756C4.6996 13.2169 9.1202 7.52059 17.2422 1.01852C17.9267 0.471111 18.7521 0.128285 19.6231 0.0295822C20.4941 -0.0691203 21.3753 0.0803206 22.165 0.460672ZM49.6 80.0661C46.316 79.5121 43.1214 78.5198 40.1016 77.1157C40.2339 74.5909 40.3 72.1405 40.3 69.7644C40.3 67.2479 40.2215 64.8429 40.0644 62.5495C42.811 64.8119 46.0536 66.4917 49.6 67.4029V52.688C49.6 50.2221 50.5798 47.8573 52.3239 46.1136C54.068 44.37 56.4335 43.3904 58.9 43.3904H80.6C80.6006 38.6611 79.2482 34.0302 76.7022 30.0442C74.1563 26.0581 70.5232 22.8832 66.2314 20.8939C61.9396 18.9046 57.1683 18.184 52.4802 18.8171C47.7922 19.4502 43.3831 21.4105 39.773 24.4669C38.7004 19.4214 36.208 15.7272 34.6146 13.3656L34.3666 12.9937C39.937 9.06799 46.4792 6.74758 53.2789 6.28581C60.0786 5.82404 66.8745 7.23866 72.9248 10.3753C78.9751 13.5118 84.0472 18.2498 87.5874 24.072C91.1277 29.8943 93 36.5769 93 43.3904H114.7C117.167 43.3904 119.532 44.37 121.276 46.1136C123.02 47.8573 124 50.2221 124 52.688V108.473C124 110.939 123.02 113.304 121.276 115.047C119.532 116.791 117.167 117.771 114.7 117.771H58.9C56.4335 117.771 54.068 116.791 52.3239 115.047C50.5798 113.304 49.6 110.939 49.6 108.473V80.0661ZM62 80.0661V105.374H111.6V55.7872H90.8858C88.6684 62.0392 84.8213 67.586 79.7421 71.8542C74.6628 76.1225 68.5357 78.9574 61.9938 80.0661M77.283 55.7872H62V67.4029C65.1918 66.5793 68.1873 65.1279 70.8114 63.1334C73.4355 61.139 75.6356 58.6416 77.283 55.7872Z" fill="#F8F8F8"/>
</svg>
