<svg width="177" height="109" viewBox="0 0 177 109" fill="none" xmlns="http://www.w3.org/2000/svg">
<path d="M58.231 103C62.1888 103 65.9846 101.428 68.7832 98.6293C71.5818 95.8307 73.1541 92.035 73.1541 88.0771C73.1541 84.1193 71.5818 80.3235 68.7832 77.5249C65.9846 74.7263 62.1888 73.1541 58.231 73.1541C54.2731 73.1541 50.4774 74.7263 47.6788 77.5249C44.8802 80.3235 43.3079 84.1193 43.3079 88.0771C43.3079 92.035 44.8802 95.8307 47.6788 98.6293C50.4774 101.428 54.2731 103 58.231 103ZM132.846 103C136.804 103 140.6 101.428 143.399 98.6293C146.197 95.8307 147.769 92.035 147.769 88.0771C147.769 84.1193 146.197 80.3235 143.399 77.5249C140.6 74.7263 136.804 73.1541 132.846 73.1541C128.888 73.1541 125.093 74.7263 122.294 77.5249C119.496 80.3235 117.923 84.1193 117.923 88.0771C117.923 92.035 119.496 95.8307 122.294 98.6293C125.093 101.428 128.888 103 132.846 103Z" stroke="#F8F8F8" stroke-width="12" stroke-miterlimit="1.5" stroke-linecap="round" stroke-linejoin="round"/>
<path d="M73.5269 88.0769H110.461V10.4769C110.461 9.28957 109.99 8.15085 109.15 7.31126C108.311 6.47167 107.172 6 105.985 6H6M40.6961 88.0769H25.4C24.8121 88.0769 24.2299 87.9611 23.6867 87.7361C23.1436 87.5111 22.65 87.1813 22.2343 86.7656C21.8186 86.3499 21.4888 85.8564 21.2639 85.3132C21.0389 84.77 20.9231 84.1879 20.9231 83.6V47.0384" stroke="#F8F8F8" stroke-width="12" stroke-linecap="round"/>
<path d="M13.4613 28.3848H43.3074" stroke="#F8F8F8" stroke-width="12" stroke-linecap="round" stroke-linejoin="round"/>
<path d="M110.461 28.3848H152.321C153.186 28.385 154.033 28.636 154.758 29.1074C155.484 29.5788 156.058 30.2505 156.41 31.0411L169.766 61.0961C170.02 61.6668 170.152 62.2844 170.154 62.9093V83.6001C170.154 84.188 170.038 84.7702 169.813 85.3134C169.588 85.8565 169.258 86.3501 168.842 86.7658C168.427 87.1815 167.933 87.5113 167.39 87.7363C166.847 87.9612 166.265 88.077 165.677 88.077H151.5M110.461 88.077H117.923" stroke="#F8F8F8" stroke-width="12" stroke-linecap="round"/>
</svg>
