<svg width="115" height="121" viewBox="0 0 115 121" fill="none" xmlns="http://www.w3.org/2000/svg">
<path fill-rule="evenodd" clip-rule="evenodd" d="M50.835 12.0636C50.4112 12.0658 50.0053 12.235 49.7056 12.5347C49.4059 12.8344 49.2366 13.2403 49.2345 13.6641C49.2345 28.2048 33.4875 37.3008 20.893 30.0224C20.5247 29.812 20.0881 29.7557 19.6784 29.8656C19.2687 29.9756 18.919 30.2429 18.7055 30.6095L12.2715 41.7724C12.063 42.139 12.0069 42.5729 12.1152 42.9806C12.2235 43.3882 12.4876 43.7371 12.8506 43.9519C25.445 51.2303 25.445 69.4061 12.8506 76.6845C12.4862 76.898 12.2204 77.2462 12.1106 77.654C12.0007 78.0618 12.0557 78.4964 12.2635 78.864L18.7055 90.0269C18.919 90.3935 19.2687 90.6608 19.6784 90.7708C20.0881 90.8807 20.5247 90.8244 20.893 90.614C33.4875 83.3356 49.2345 92.4316 49.2345 106.964C49.2345 107.849 49.9503 108.565 50.835 108.565H63.7109C64.5956 108.565 65.3113 107.849 65.3113 106.964C65.3113 92.4236 81.0584 83.3276 93.6528 90.606C94.0205 90.8138 94.4551 90.8688 94.8629 90.7589C95.2706 90.6491 95.6189 90.3833 95.8323 90.0189L102.282 78.856C102.49 78.4884 102.545 78.0537 102.435 77.646C102.325 77.2382 102.06 76.89 101.695 76.6765C91.216 70.6205 89.503 57.1012 96.3471 48.528C97.3523 47.2996 98.8012 46.517 100.38 46.3498C101.958 46.1826 103.539 46.6443 104.779 47.6349C106.019 48.6254 106.819 50.0649 107.005 51.6412C107.191 53.2176 106.748 54.8037 105.773 56.0557C105.165 56.8275 104.73 57.7211 104.497 58.6758C104.265 59.6305 104.241 60.624 104.426 61.589C104.611 62.5539 105.002 63.4677 105.572 64.2684C106.141 65.069 106.876 65.7378 107.727 66.2294C110.862 68.0427 113.15 71.0258 114.088 74.5239C115.025 78.0221 114.537 81.7494 112.729 84.8878L106.279 96.0507C104.466 99.1857 101.483 101.473 97.9849 102.411C94.4868 103.349 90.7594 102.861 87.621 101.053C86.5827 100.455 85.4055 100.141 84.2075 100.142C83.0095 100.142 81.8326 100.458 80.7949 101.057C79.7572 101.655 78.895 102.516 78.2948 103.553C77.6946 104.59 77.3774 105.766 77.375 106.964C77.375 114.508 71.2627 120.628 63.7109 120.628H50.843C43.2992 120.628 37.1789 114.516 37.1789 106.964C37.1765 105.766 36.8593 104.59 36.2591 103.553C35.6589 102.516 34.7967 101.655 33.759 101.057C32.7213 100.458 31.5445 100.142 30.3464 100.142C29.1484 100.141 27.9712 100.455 26.9329 101.053C23.7945 102.861 20.0671 103.349 16.569 102.411C13.0709 101.473 10.0878 99.1857 8.27446 96.0507L1.82444 84.8878C0.0169571 81.7494 -0.471454 78.0221 0.46641 74.5239C1.40427 71.0258 3.69178 68.0427 6.82683 66.2294C7.86558 65.6293 8.72812 64.7663 9.32779 63.7273C9.92747 62.6883 10.2432 61.5098 10.2432 60.3102C10.2432 59.1105 9.92747 57.932 9.32779 56.893C8.72812 55.854 7.86558 54.9911 6.82683 54.3909C3.69178 52.5776 1.40427 49.5945 0.46641 46.0964C-0.471454 42.5982 0.0169571 38.8709 1.82444 35.7325L8.26642 24.5696C10.0797 21.4346 13.0628 19.1471 16.561 18.2092C20.0591 17.2713 23.7864 17.7597 26.9248 19.5672C27.962 20.1642 29.1377 20.4784 30.3344 20.4785C31.5311 20.4786 32.7068 20.1645 33.744 19.5677C34.7813 18.971 35.6437 18.1123 36.2451 17.0777C36.8465 16.0431 37.1657 14.8688 37.1709 13.6721C37.1709 6.11224 43.2831 0 50.835 0H67.7321C68.5242 -1.66925e-08 69.3086 0.156018 70.0404 0.459145C70.7722 0.762272 71.4371 1.20657 71.9973 1.76668C72.5574 2.32679 73.0017 2.99173 73.3048 3.72354C73.6079 4.45536 73.7639 5.23971 73.7639 6.03182C73.7639 6.82393 73.6079 7.60828 73.3048 8.3401C73.0017 9.07191 72.5574 9.73685 71.9973 10.297C71.4371 10.8571 70.7722 11.3014 70.0404 11.6045C69.3086 11.9076 68.5242 12.0636 67.7321 12.0636H50.835ZM57.2689 72.3818C60.4684 72.3818 63.5368 71.1108 65.7992 68.8485C68.0616 66.5861 69.3326 63.5177 69.3326 60.3182C69.3326 57.1187 68.0616 54.0503 65.7992 51.7879C63.5368 49.5255 60.4684 48.2546 57.2689 48.2546C54.0694 48.2546 51.001 49.5255 48.7386 51.7879C46.4763 54.0503 45.2053 57.1187 45.2053 60.3182C45.2053 63.5177 46.4763 66.5861 48.7386 68.8485C51.001 71.1108 54.0694 72.3818 57.2689 72.3818ZM57.277 84.4455C63.6759 84.4455 69.8128 81.9035 74.3375 77.3788C78.8623 72.854 81.4042 66.7171 81.4042 60.3182C81.4042 53.9192 78.8623 47.7824 74.3375 43.2576C69.8128 38.7329 63.6759 36.1909 57.277 36.1909C50.878 36.1909 44.7411 38.7329 40.2164 43.2576C35.6917 47.7824 33.1497 53.9192 33.1497 60.3182C33.1497 66.7171 35.6917 72.854 40.2164 77.3788C44.7411 81.9035 50.878 84.4455 57.277 84.4455Z" fill="#F8F8F8"/>
<path fill-rule="evenodd" clip-rule="evenodd" d="M93.4675 40.2122C97.7335 40.2122 101.825 38.5175 104.841 35.501C107.858 32.4845 109.552 28.3933 109.552 24.1273C109.552 19.8614 107.858 15.7701 104.841 12.7536C101.825 9.73713 97.7335 8.04248 93.4675 8.04248C89.2016 8.04248 85.1103 9.73713 82.0938 12.7536C79.0773 15.7701 77.3827 19.8614 77.3827 24.1273C77.3827 28.3933 79.0773 32.4845 82.0938 35.501C85.1103 38.5175 89.2016 40.2122 93.4675 40.2122Z" fill="#F8F8F8"/>
</svg>
