<svg width="141" height="141" viewBox="0 0 141 141" fill="none" xmlns="http://www.w3.org/2000/svg">
<g clip-path="url(#clip0_158_164)">
<path d="M70.5 0C31.5639 0 0 31.5639 0 70.5C0 109.436 31.5639 141 70.5 141C109.436 141 141 109.436 141 70.5C141 31.5639 109.436 0 70.5 0ZM68.1076 26.0588H72.8925V40.164H68.1076V26.0588ZM48.5376 30.2929L56.6272 41.8421L52.703 44.5961L44.6133 33.0469L48.5376 30.2929ZM92.4624 30.2929L96.3867 33.0469L88.297 44.5961L84.3727 41.8421L92.4624 30.2929ZM70.5 44.0195C82.2211 44.0195 91.7223 51.134 91.7223 59.9147L79.6654 96.4298H61.3346L49.2777 59.9147C49.2777 51.1339 58.7796 44.0195 70.5 44.0195ZM32.3842 48.2536L45.6374 53.0816L43.9936 57.5825L30.749 52.7546L32.3842 48.2536ZM108.616 48.2536L110.251 52.7546L96.9978 57.5825L95.3626 53.0816L108.616 48.2536ZM45.0005 68.8477L46.2398 73.4777L32.6166 77.1266L31.3773 72.4967L45.0005 68.8477ZM95.9995 68.8477L109.623 72.4967L108.383 77.1266L94.7602 73.4777L95.9995 68.8477ZM61.0679 99.0976H79.9322V105.44H61.0679V99.0976ZM61.0679 108.599H79.9322V114.941H61.0679V108.599Z" fill="#FF4E00"/>
</g>
<defs>
<clipPath id="clip0_158_164">
<rect width="141" height="141" fill="white"/>
</clipPath>
</defs>
</svg>
