<svg width="248" height="269" viewBox="0 0 248 269" fill="none" xmlns="http://www.w3.org/2000/svg">
<path d="M123.696 134.588C136.863 134.588 149.735 130.659 160.683 123.298C171.631 115.937 180.164 105.475 185.203 93.2342C190.242 80.9934 191.56 67.524 188.992 54.5293C186.423 41.5346 180.082 29.5982 170.772 20.2295C161.461 10.8608 149.598 4.48067 136.684 1.89586C123.77 -0.688951 110.384 0.637668 98.2191 5.70796C86.0541 10.7782 75.6566 19.3645 68.3413 30.3809C61.026 41.3973 57.1214 54.3491 57.1214 67.5984C57.1214 85.3651 64.1355 102.404 76.6207 114.967C89.1059 127.53 106.039 134.588 123.696 134.588ZM123.696 153.728C82.4317 153.728 0.0574036 179.375 0.0574036 230.288V268.567H247.335V230.288C247.335 179.375 164.961 153.728 123.696 153.728Z" fill="#F8F8F8"/>
</svg>
